<svg width="19" height="16" viewBox="0 0 19 16" fill="none" xmlns="http://www.w3.org/2000/svg">
<path d="M17.5778 0.799805H0.86356C0.693064 0.799805 0.529551 0.868766 0.408992 0.991517C0.288432 1.11427 0.220703 1.28075 0.220703 1.45435V14.5453C0.220703 14.7189 0.288432 14.8853 0.408992 15.0081C0.529551 15.1308 0.693064 15.1998 0.86356 15.1998H17.5778C17.7483 15.1998 17.9119 15.1308 18.0324 15.0081C18.153 14.8853 18.2207 14.7189 18.2207 14.5453V1.45435C18.2207 1.28075 18.153 1.11427 18.0324 0.991517C17.9119 0.868766 17.7483 0.799805 17.5778 0.799805ZM9.61526 9.17103C9.50243 9.26033 9.36361 9.30881 9.2207 9.30881C9.0778 9.30881 8.93897 9.26033 8.82615 9.17103L2.53298 4.18749L3.32209 3.15412L9.2207 7.82512L15.1193 3.15412L15.9084 4.18749L9.61526 9.17103Z" fill="#CCAA60"/>
</svg>
