<svg width="18" height="17" viewBox="0 0 18 17" fill="none" xmlns="http://www.w3.org/2000/svg">
<path d="M17.1809 12.8312C16.9828 12.6202 16.2834 11.9964 14.9978 11.171C13.7026 10.3385 12.7475 9.81934 12.4735 9.69829C12.4494 9.68758 12.4228 9.68365 12.3966 9.68692C12.3704 9.6902 12.3455 9.70056 12.3248 9.71688C11.8834 10.0611 11.1404 10.6933 11.1006 10.7274C10.8433 10.9479 10.8433 10.9479 10.6327 10.8792C10.2623 10.7578 9.11176 10.1468 8.10919 9.14198C7.10662 8.13714 6.46417 6.95812 6.34273 6.58814C6.27329 6.37715 6.27329 6.37715 6.49452 6.11987C6.52868 6.08003 7.16126 5.33702 7.50544 4.89608C7.52177 4.87531 7.53212 4.85049 7.5354 4.82428C7.53868 4.79807 7.53475 4.77147 7.52404 4.74732C7.40299 4.47296 6.88386 3.51821 6.0513 2.22308C5.2248 0.937808 4.60171 0.238443 4.39072 0.0403585C4.37136 0.0220881 4.34743 0.00937816 4.32145 0.00356797C4.29547 -0.00224222 4.2684 -0.000937498 4.2431 0.00734453C3.50558 0.260788 2.79399 0.584178 2.11805 0.973099C1.46551 1.35243 0.847733 1.78862 0.271904 2.27658C0.251803 2.29367 0.236733 2.31591 0.228309 2.34091C0.219886 2.36591 0.218428 2.39274 0.22409 2.41851C0.3034 2.78811 0.682495 4.33104 1.85887 6.46823C3.05914 8.64943 3.89095 9.76697 5.65361 11.5235C7.41627 13.2801 8.56911 14.162 10.7526 15.3623C12.8898 16.5386 14.4335 16.9181 14.8024 16.9967C14.8282 17.0023 14.855 17.0008 14.8801 16.9924C14.9052 16.984 14.9275 16.9689 14.9447 16.9488C15.4325 16.373 15.8686 15.7553 16.2478 15.1027C16.6366 14.4267 16.96 13.7152 17.2135 12.9777C17.2216 12.9526 17.2229 12.9258 17.2172 12.9C17.2114 12.8742 17.1989 12.8505 17.1809 12.8312V12.8312Z" fill="#CCAA60"/>
</svg>
